<svg xmlns="http://www.w3.org/2000/svg" xmlns:xlink="http://www.w3.org/1999/xlink" width="280" height="257" viewBox="0 0 280 257">
  <defs>
    <clipPath id="clip-Logo">
      <rect width="280" height="257"/>
    </clipPath>
  </defs>
  <g id="Logo" clip-path="url(#clip-Logo)">
    <rect id="Rectangle_125" data-name="Rectangle 125" width="280" height="257" fill="#fff" opacity="0"/>
    <g id="Group_55" data-name="Group 55" transform="translate(-126.741 -1030.797)">
      <path id="Path_72" data-name="Path 72" d="M-2425.021-669.081l14.66,16.492s17.561,20.462,35.58,3.359,20.31-21.989,20.31-21.989,13.591-16.187-9.315-23.211c-.153-.153-5.583-2.624-25.654-3.665C-2389.136-697.637-2399.214-681.145-2425.021-669.081Z" transform="translate(2656.786 1896.83)" fill="#f91717"/>
      <path id="Path_69" data-name="Path 69" d="M-2350.126-688.112s4.276-13.285-15.575-18.019a134.437,134.437,0,0,0-68.606,2.145c-.445,0-14.935,5.464-19.962-3.825-8.093-13.133-15.118-25.96-15.118-25.96s-4.428-10.078,7.482-14.354c-.153-.458,33.9-14.049,74.825-12.369-.153.153,20.615-1.374,51.308,9.315-.458.153,18.019,4.734,14.507,18.324C-2321.418-732.549-2321.277-725.756-2350.126-688.112Z" transform="translate(2660.991 1902.652)" fill="#f91717"/>
      <path id="Path_70" data-name="Path 70" d="M-2353.985-766.9a65.088,65.088,0,0,0,15.44-16.053c-.458,0,39.4,4.276,37.26,23.364a19.43,19.43,0,0,1-5.956,13.056S-2307.257-760.341-2353.985-766.9Z" transform="translate(2650.173 1904.73)" fill="#040470"/>
      <path id="Path_71" data-name="Path 71" d="M-2310.331-769.964s32.1-35.543,15-55.483c-16.659-16.456-52.808-23.442-83.394-24.275-.029.029-68.568-4.661-111.2,11.917-.035-.143-13.66,3.961-11.588,16.8-.6.6,6.75,23.226,6.75,23.226s3.772,15.285,17.469,11.911c.4.2,36.393-15.047,115.188-10.62C-2327.534-792.991-2309.972-784.134-2310.331-769.964Z" transform="translate(2663.927 1911)" fill="#040470"/>
    </g>
  </g>
</svg>
